{
  "accessors": [
    {
      "bufferView": 2,
      "componentType": 5126,
      "count": 14055,
      "max": [
        2.9144301414489746,
        4.348287582397461,
        0.7013630270957947
      ],
      "min": [
        -0.08900737762451172,
        -0.0312877893447876,
        -0.7013630270957947
      ],
      "type": "VEC3"
    },
    {
      "bufferView": 2,
      "byteOffset": 168660,
      "componentType": 5126,
      "count": 14055,
      "max": [
        0.9999918341636658,
        0.9987507462501526,
        0.9999999403953552
      ],
      "min": [
        -0.999985933303833,
        -0.9999933242797852,
        -0.9999999403953552
      ],
      "type": "VEC3"
    },
    {
      "bufferView": 3,
      "componentType": 5126,
      "count": 14055,
      "max": [
        0.9997594356536865,
        0.9999558329582214,
        0.9999973773956299,
        1.0
      ],
      "min": [
        -0.9999933242797852,
        -0.9999859929084778,
        -0.9999968409538269,
        -1.0
      ],
      "type": "VEC4"
    },
    {
      "bufferView": 1,
      "componentType": 5126,
      "count": 14055,
      "max": [
        0.9968072175979614,
        0.9972660541534424
      ],
      "min": [
        0.002734266221523285,
        0.0027393102645874023
      ],
      "type": "VEC2"
    },
    {
      "bufferView": 1,
      "byteOffset": 112440,
      "componentType": 5126,
      "count": 14055,
      "max": [
        0.9968072175979614,
        0.9972660541534424
      ],
      "min": [
        0.002734266221523285,
        0.0027393102645874023
      ],
      "type": "VEC2"
    },
    {
      "bufferView": 1,
      "byteOffset": 224880,
      "componentType": 5126,
      "count": 14055,
      "max": [
        0.9968072175979614,
        0.9972660541534424
      ],
      "min": [
        0.002734266221523285,
        0.0027393102645874023
      ],
      "type": "VEC2"
    },
    {
      "bufferView": 1,
      "byteOffset": 337320,
      "componentType": 5126,
      "count": 14055,
      "max": [
        0.9968072175979614,
        0.9972660541534424
      ],
      "min": [
        0.002734266221523285,
        0.0027393102645874023
      ],
      "type": "VEC2"
    },
    {
      "bufferView": 1,
      "byteOffset": 449760,
      "componentType": 5126,
      "count": 14055,
      "max": [
        0.9968072175979614,
        0.9972660541534424
      ],
      "min": [
        0.002734266221523285,
        0.0027393102645874023
      ],
      "type": "VEC2"
    },
    {
      "bufferView": 0,
      "componentType": 5125,
      "count": 71832,
      "type": "SCALAR"
    }
  ],
  "asset": {
    "extras": {
      "author": "Rzyas (https://sketchfab.com/rzyas)",
      "license": "CC-BY-4.0 (http://creativecommons.org/licenses/by/4.0/)",
      "source": "https://sketchfab.com/3d-models/naga-7ab26d5cc7ff4f398908001136aac455",
      "title": "NAGA"
    },
    "generator": "Sketchfab-11.71.0",
    "version": "2.0"
  },
  "bufferViews": [
    {
      "buffer": 0,
      "byteLength": 287328,
      "name": "floatBufferViews",
      "target": 34963
    },
    {
      "buffer": 0,
      "byteLength": 562200,
      "byteOffset": 287328,
      "byteStride": 8,
      "name": "floatBufferViews",
      "target": 34962
    },
    {
      "buffer": 0,
      "byteLength": 337320,
      "byteOffset": 849528,
      "byteStride": 12,
      "name": "floatBufferViews",
      "target": 34962
    },
    {
      "buffer": 0,
      "byteLength": 224880,
      "byteOffset": 1186848,
      "byteStride": 16,
      "name": "floatBufferViews",
      "target": 34962
    }
  ],
  "buffers": [
    {
      "byteLength": 1411728,
      "uri": "scene.bin"
    }
  ],
  "images": [
    {
      "uri": "textures/Naga_MAT_baseColor.png"
    },
    {
      "uri": "textures/Naga_MAT_metallicRoughness.png"
    },
    {
      "uri": "textures/Naga_MAT_normal.png"
    }
  ],
  "materials": [
    {
      "name": "Naga_MAT",
      "normalTexture": {
        "index": 2
      },
      "occlusionTexture": {
        "index": 1
      },
      "pbrMetallicRoughness": {
        "baseColorTexture": {
          "index": 0
        },
        "metallicRoughnessTexture": {
          "index": 1
        }
      }
    }
  ],
  "meshes": [
    {
      "name": "Object_0",
      "primitives": [
        {
          "attributes": {
            "NORMAL": 1,
            "POSITION": 0,
            "TANGENT": 2,
            "TEXCOORD_0": 3,
            "TEXCOORD_1": 4,
            "TEXCOORD_2": 5,
            "TEXCOORD_3": 6,
            "TEXCOORD_4": 7
          },
          "indices": 8,
          "material": 0,
          "mode": 4
        }
      ]
    }
  ],
  "nodes": [
    {
      "children": [
        1
      ],
      "matrix": [
        1.0,
        0.0,
        0.0,
        0.0,
        0.0,
        2.220446049250313e-16,
        -1.0,
        0.0,
        0.0,
        1.0,
        2.220446049250313e-16,
        0.0,
        0.0,
        0.0,
        0.0,
        1.0
      ],
      "name": "Sketchfab_model"
    },
    {
      "children": [
        2
      ],
      "name": "root"
    },
    {
      "children": [
        3
      ],
      "matrix": [
        1.0,
        0.0,
        0.0,
        0.0,
        0.0,
        2.220446049250313e-16,
        1.0,
        0.0,
        0.0,
        -1.0,
        2.220446049250313e-16,
        0.0,
        0.0,
        0.0,
        0.0,
        1.0
      ],
      "name": "GLTF_SceneRootNode"
    },
    {
      "children": [
        4
      ],
      "name": "RootNode_0"
    },
    {
      "children": [
        5
      ],
      "matrix": [
        1.3169410251201441e-05,
        -79.6072356795233,
        -60.5201456332076,
        0.0,
        -7.582415439966184e-06,
        60.52014563320716,
        -79.60723567952438,
        0.0,
        99.99999999999885,
        1.507269232758901e-05,
        1.9339949419716618e-06,
        0.0,
        0.0,
        137.13247680664063,
        212.88307189941406,
        1.0
      ],
      "name": "Naga_1"
    },
    {
      "children": [
        6
      ],
      "name": "Naga_2"
    },
    {
      "mesh": 0,
      "name": "Object_6"
    }
  ],
  "samplers": [
    {
      "magFilter": 9729,
      "minFilter": 9987,
      "wrapS": 10497,
      "wrapT": 10497
    }
  ],
  "scene": 0,
  "scenes": [
    {
      "name": "Sketchfab_Scene",
      "nodes": [
        0
      ]
    }
  ],
  "textures": [
    {
      "sampler": 0,
      "source": 0
    },
    {
      "sampler": 0,
      "source": 1
    },
    {
      "sampler": 0,
      "source": 2
    }
  ]
}
